# xmcd
# 
# Track frame offsets:
#     150
#     30635
#     59478
#     83959
#     114930
#     132859
#     165924
# 
# Disc length: 2488
# 
# Revision: 0
# Processed by: cddbd v1.5.2PL0 Copyright (c) Steve Scherf et al.
# Submitted via: fre:ac v1.0.17
# 
DISCID=4f09b607
DTITLE=Julia Boehme - Tafiti un Ur-ur-ur-ur-ur-uropapas Goldschatz
DYEAR=0
DGENRE=
TTITLE0=Ein geheimnisvoller Brief
TTITLE1=Schatzsuche mit Umleitung
TTITLE2=In der Falle
TTITLE3=Ab durch die Mitte
TTITLE4=Ein Festmenü für seine Majestät
TTITLE5=Das Geheimnis der Süßkartoffeln
TTITLE6=Noch ein Schatz
EXTD=
EXTT0=
EXTT1=
EXTT2=
EXTT3=
EXTT4=
EXTT5=
EXTT6=
PLAYORDER=
